<svg xmlns="http://www.w3.org/2000/svg" width="26" height="19.5" viewBox="0 0 26 19.5">
  <g id="message_1_" data-name="message (1)" transform="translate(-4 -16)">
    <path id="Path_15869" data-name="Path 15869" d="M25.938,35.5H8.063A4.067,4.067,0,0,1,4,31.438V20.063A4.067,4.067,0,0,1,8.063,16H25.938A4.067,4.067,0,0,1,30,20.063V31.438A4.067,4.067,0,0,1,25.937,35.5ZM8.063,17.625a2.437,2.437,0,0,0-2.437,2.438V31.438a2.438,2.438,0,0,0,2.438,2.438H25.938a2.438,2.438,0,0,0,2.438-2.437V20.063a2.437,2.437,0,0,0-2.437-2.437Z" fill="#a4a4a4"/>
    <path id="Path_15870" data-name="Path 15870" d="M17.937,29.23a2.438,2.438,0,0,1-1.254-.347L9.394,24.509a.812.812,0,1,1,.837-1.393l7.288,4.373a.813.813,0,0,0,.838,0l7.287-4.373a.812.812,0,1,1,.837,1.393l-7.289,4.374a2.437,2.437,0,0,1-1.254.348Z" transform="translate(-0.937 -1.312)" fill="#a4a4a4"/>
  </g>
</svg>
