<svg xmlns="http://www.w3.org/2000/svg" width="26" height="22.94" viewBox="0 0 26 22.94">
  <g id="briefcase_3_" data-name="briefcase (3)" transform="translate(0 -30.125)">
    <path id="Path_15871" data-name="Path 15871" d="M25.238,34.714H18.351V33.2a3.079,3.079,0,0,0-3.076-3.076H10.725A3.079,3.079,0,0,0,7.649,33.2v1.514H.762A.762.762,0,0,0,0,35.476V49.314a3.756,3.756,0,0,0,3.751,3.751h18.5A3.756,3.756,0,0,0,26,49.314V35.476A.762.762,0,0,0,25.238,34.714Zm-10.51,9.94a1.728,1.728,0,1,1-3.457,0V42.926h3.457ZM15.49,41.4H10.51a.762.762,0,0,0-.762.762v1.384c-4.43-.961-7.75-3.834-8.177-7.311H24.429c-.427,3.476-3.748,6.349-8.177,7.311V42.165a.762.762,0,0,0-.762-.762ZM9.172,33.2a1.554,1.554,0,0,1,1.552-1.552h4.551A1.554,1.554,0,0,1,16.828,33.2v1.514H9.172V33.2Zm15.3,16.113a2.231,2.231,0,0,1-2.228,2.228H3.751a2.231,2.231,0,0,1-2.228-2.228V40.166a10.693,10.693,0,0,0,2.366,2.41,14.35,14.35,0,0,0,5.892,2.536,3.251,3.251,0,0,0,6.438,0,14.351,14.351,0,0,0,5.892-2.536,10.694,10.694,0,0,0,2.366-2.41Z" fill="#a4a4a4"/>
  </g>
</svg>
