<svg xmlns="http://www.w3.org/2000/svg" width="296.459" height="81.439" viewBox="0 0 296.459 81.439">
  <g id="Group_1013" data-name="Group 1013" transform="translate(-219.676 -391.525)">
    <path id="Path_14740" data-name="Path 14740" d="M254.013,391.525H226.179a6.509,6.509,0,0,0-6.5,6.5v8.842a6.509,6.509,0,0,0,6.5,6.5h12.488v40.249a6.5,6.5,0,0,0,6.5,6.5h8.842a6.5,6.5,0,0,0,6.5-6.5V398.029A6.509,6.509,0,0,0,254.013,391.525Z" transform="translate(0 0)" fill="#005aa8" style="mix-blend-mode: multiply;isolation: isolate"/>
    <text id="harav" transform="translate(286.135 454.964)" font-size="80" font-family="Axiforma-Regular, Axiforma"><tspan x="0" y="0">harav</tspan></text>
    <path id="Path_14741" data-name="Path 14741" d="M258.317,393.235a6.45,6.45,0,0,0-4.3-1.71H226.179a6.509,6.509,0,0,0-6.5,6.5v8.842a6.509,6.509,0,0,0,6.5,6.5h12.488S256.286,414.353,258.317,393.235Z" transform="translate(0 0)" fill="#0e7cc2" style="mix-blend-mode: multiply;isolation: isolate"/>
    <circle id="Ellipse_2" data-name="Ellipse 2" cx="10.723" cy="10.723" r="10.723" transform="translate(262.356 391.732)" fill="#005aa8" style="mix-blend-mode: multiply;isolation: isolate"/>
  </g>
</svg>
